# xmcd
#
# Track frame offsets:
#	183
#	14853
#	30438
#	46345
#	58835
#	72868
#	88013
#	101175
#	112575
#	123513
#
# Disc length: 1836 seconds
#
# Revision: 0
# Processed by: cddbd v1.5.2PL0 Copyright (c) Steve Scherf et al.
# Submitted via: EasyCDDAExtractor 11.0.0.1
#
DISCID=84072a0a
DTITLE=오은정 - 왜왜왜 外 9곡
DYEAR=1900
DGENRE=Trot
TTITLE0=왜 왜 왜
TTITLE1=둥지
TTITLE2=대동강 편지
TTITLE3=애인선언
TTITLE4=가을밤 외기러기
TTITLE5=미쳐 몰랐네
TTITLE6=고향역
TTITLE7=애가
TTITLE8=그대여 둘이서
TTITLE9=달리는 인생
EXTD=
EXTT0=
EXTT1=
EXTT2=
EXTT3=
EXTT4=
EXTT5=
EXTT6=
EXTT7=
EXTT8=
EXTT9=
PLAYORDER=
